<svg width="420" height="320" viewBox="0 0 420 320" fill="none" xmlns="http://www.w3.org/2000/svg">
  <defs>
    <linearGradient id="bgIndoor" x1="48" y1="30" x2="354" y2="278" gradientUnits="userSpaceOnUse">
      <stop stop-color="#13304D"/>
      <stop offset="1" stop-color="#081522"/>
    </linearGradient>
    <linearGradient id="bodyIndoor" x1="143" y1="70" x2="277" y2="250" gradientUnits="userSpaceOnUse">
      <stop stop-color="#F4FBFF"/>
      <stop offset="1" stop-color="#BFD6E8"/>
    </linearGradient>
    <linearGradient id="lensIndoor" x1="171" y1="104" x2="248" y2="181" gradientUnits="userSpaceOnUse">
      <stop stop-color="#70E8FF"/>
      <stop offset="1" stop-color="#0F76C4"/>
    </linearGradient>
  </defs>
  <rect x="24" y="24" width="372" height="272" rx="28" fill="url(#bgIndoor)" stroke="rgba(91,221,255,0.18)"/>
  <circle cx="318" cy="74" r="6" fill="#69E3FF"/>
  <circle cx="338" cy="74" r="6" fill="#69E3FF" fill-opacity="0.45"/>
  <circle cx="358" cy="74" r="6" fill="#69E3FF" fill-opacity="0.25"/>
  <rect x="110" y="66" width="200" height="152" rx="60" fill="url(#bodyIndoor)"/>
  <circle cx="210" cy="142" r="44" fill="#0B1522"/>
  <circle cx="210" cy="142" r="33" fill="url(#lensIndoor)"/>
  <circle cx="210" cy="142" r="18" fill="#0A2034"/>
  <circle cx="196" cy="128" r="6" fill="#DFFFFF" fill-opacity="0.7"/>
  <rect x="182" y="215" width="56" height="18" rx="9" fill="#D6E7F4"/>
  <path d="M165 233H255L271 262C275 269 270 278 262 278H158C150 278 145 269 149 262L165 233Z" fill="#E4F1FA"/>
  <rect x="64" y="228" width="80" height="28" rx="14" fill="#0E253A"/>
  <text x="84" y="246" fill="#69E3FF" font-family="JetBrains Mono, monospace" font-size="11">2-Way Audio</text>
  <rect x="278" y="228" width="86" height="28" rx="14" fill="#0E253A"/>
  <text x="302" y="246" fill="#69E3FF" font-family="JetBrains Mono, monospace" font-size="11">AI Care</text>
</svg>
