<svg width="420" height="320" viewBox="0 0 420 320" fill="none" xmlns="http://www.w3.org/2000/svg">
  <defs>
    <linearGradient id="bgSolar" x1="50" y1="24" x2="354" y2="278" gradientUnits="userSpaceOnUse">
      <stop stop-color="#0E2942"/>
      <stop offset="1" stop-color="#06131D"/>
    </linearGradient>
    <linearGradient id="panel" x1="80" y1="82" x2="188" y2="220" gradientUnits="userSpaceOnUse">
      <stop stop-color="#1AB8FF"/>
      <stop offset="1" stop-color="#0C4E8A"/>
    </linearGradient>
    <linearGradient id="bodySolar" x1="232" y1="86" x2="318" y2="220" gradientUnits="userSpaceOnUse">
      <stop stop-color="#F7FCFF"/>
      <stop offset="1" stop-color="#C3DAE9"/>
    </linearGradient>
  </defs>
  <rect x="24" y="24" width="372" height="272" rx="28" fill="url(#bgSolar)"/>
  <rect x="82" y="92" width="104" height="128" rx="12" fill="url(#panel)" stroke="#69E3FF" stroke-opacity="0.45"/>
  <path d="M82 124H186M82 156H186M82 188H186M116 92V220M152 92V220" stroke="#C7F6FF" stroke-opacity="0.42"/>
  <path d="M134 220V265" stroke="#8BD8FF" stroke-width="8" stroke-linecap="round"/>
  <path d="M110 265H158" stroke="#8BD8FF" stroke-width="8" stroke-linecap="round"/>
  <rect x="238" y="88" width="96" height="108" rx="30" fill="url(#bodySolar)"/>
  <circle cx="286" cy="142" r="28" fill="#0B1522"/>
  <circle cx="286" cy="142" r="20" fill="#5CE1FF"/>
  <circle cx="278" cy="134" r="4" fill="#E6FFFF" fill-opacity="0.7"/>
  <rect x="264" y="197" width="44" height="16" rx="8" fill="#D7E8F5"/>
  <path d="M254 213H318L326 248C328 254 323 260 317 260H255C249 260 244 254 246 248L254 213Z" fill="#E4F1FA"/>
  <path d="M352 94C360 99 366 108 368 118M340 102C347 106 352 113 354 121M330 111C335 114 339 119 340 124" stroke="#69E3FF" stroke-width="4" stroke-linecap="round"/>
  <rect x="60" y="236" width="110" height="28" rx="14" fill="#0E253A"/>
  <text x="82" y="254" fill="#69E3FF" font-family="JetBrains Mono, monospace" font-size="11">Solar Power</text>
  <rect x="256" y="236" width="102" height="28" rx="14" fill="#0E253A"/>
  <text x="290" y="254" fill="#69E3FF" font-family="JetBrains Mono, monospace" font-size="11">4G Link</text>
</svg>
